<mxfile host="Electron" agent="Mozilla/5.0 (X11; Linux x86_64) AppleWebKit/537.36 (KHTML, like Gecko) draw.io/24.7.5 Chrome/126.0.6478.183 Electron/31.3.0 Safari/537.36" version="24.7.5">
  <diagram name="Page-1" id="c7558073-3199-34d8-9f00-42111426c3f3">
    <mxGraphModel dx="683" dy="398" grid="1" gridSize="10" guides="1" tooltips="1" connect="1" arrows="1" fold="1" page="1" pageScale="1" pageWidth="826" pageHeight="1169" background="none" math="0" shadow="0">
      <root>
        <mxCell id="0" />
        <mxCell id="1" parent="0" />
        <mxCell id="9HBcgen3dVJOL9bGBd_y-177" style="edgeStyle=orthogonalEdgeStyle;shape=connector;rounded=0;orthogonalLoop=1;jettySize=auto;html=1;exitX=1;exitY=0.75;exitDx=0;exitDy=0;entryX=0;entryY=0.5;entryDx=0;entryDy=0;strokeColor=default;align=center;verticalAlign=middle;fontFamily=Helvetica;fontSize=11;fontColor=default;labelBackgroundColor=default;endArrow=none;endFill=0;" edge="1" parent="1" source="9HBcgen3dVJOL9bGBd_y-156" target="9HBcgen3dVJOL9bGBd_y-161">
          <mxGeometry relative="1" as="geometry">
            <Array as="points">
              <mxPoint x="380" y="590" />
            </Array>
          </mxGeometry>
        </mxCell>
        <mxCell id="9HBcgen3dVJOL9bGBd_y-180" value="GND" style="edgeLabel;html=1;align=center;verticalAlign=middle;resizable=0;points=[];fontFamily=Helvetica;fontSize=11;fontColor=default;labelBackgroundColor=default;" vertex="1" connectable="0" parent="9HBcgen3dVJOL9bGBd_y-177">
          <mxGeometry x="-0.1949" y="1" relative="1" as="geometry">
            <mxPoint x="-10" y="9" as="offset" />
          </mxGeometry>
        </mxCell>
        <mxCell id="9HBcgen3dVJOL9bGBd_y-178" style="edgeStyle=orthogonalEdgeStyle;shape=connector;rounded=0;orthogonalLoop=1;jettySize=auto;html=1;exitX=1;exitY=0.25;exitDx=0;exitDy=0;entryX=0;entryY=0.5;entryDx=0;entryDy=0;strokeColor=default;align=center;verticalAlign=middle;fontFamily=Helvetica;fontSize=11;fontColor=default;labelBackgroundColor=default;endArrow=none;endFill=0;" edge="1" parent="1" source="9HBcgen3dVJOL9bGBd_y-156" target="9HBcgen3dVJOL9bGBd_y-160">
          <mxGeometry relative="1" as="geometry">
            <Array as="points">
              <mxPoint x="380" y="568" />
              <mxPoint x="465" y="568" />
            </Array>
          </mxGeometry>
        </mxCell>
        <mxCell id="9HBcgen3dVJOL9bGBd_y-179" value="ADC" style="edgeLabel;html=1;align=center;verticalAlign=middle;resizable=0;points=[];fontFamily=Helvetica;fontSize=11;fontColor=default;labelBackgroundColor=default;" vertex="1" connectable="0" parent="9HBcgen3dVJOL9bGBd_y-178">
          <mxGeometry x="-0.0495" y="1" relative="1" as="geometry">
            <mxPoint x="-16" y="-7" as="offset" />
          </mxGeometry>
        </mxCell>
        <mxCell id="9HBcgen3dVJOL9bGBd_y-156" value="&lt;font style=&quot;font-size: 18px;&quot;&gt;MCU&lt;/font&gt;" style="rounded=0;whiteSpace=wrap;html=1;labelBackgroundColor=default;fontSize=16;" vertex="1" parent="1">
          <mxGeometry x="290" y="537.5" width="90" height="82.5" as="geometry" />
        </mxCell>
        <mxCell id="9HBcgen3dVJOL9bGBd_y-157" style="edgeStyle=orthogonalEdgeStyle;shape=connector;rounded=0;orthogonalLoop=1;jettySize=auto;html=1;entryX=0.5;entryY=1;entryDx=0;entryDy=0;strokeColor=default;align=center;verticalAlign=middle;fontFamily=Helvetica;fontSize=16;fontColor=default;labelBackgroundColor=default;endArrow=none;endFill=0;" edge="1" parent="1" source="9HBcgen3dVJOL9bGBd_y-159" target="9HBcgen3dVJOL9bGBd_y-156">
          <mxGeometry relative="1" as="geometry" />
        </mxCell>
        <mxCell id="9HBcgen3dVJOL9bGBd_y-158" value="&lt;font style=&quot;font-size: 14px;&quot;&gt;PWM&lt;/font&gt;" style="edgeLabel;html=1;align=center;verticalAlign=middle;resizable=0;points=[];fontFamily=Helvetica;fontSize=16;fontColor=default;labelBackgroundColor=default;" vertex="1" connectable="0" parent="9HBcgen3dVJOL9bGBd_y-157">
          <mxGeometry x="0.0286" y="-2" relative="1" as="geometry">
            <mxPoint x="5" y="12" as="offset" />
          </mxGeometry>
        </mxCell>
        <mxCell id="9HBcgen3dVJOL9bGBd_y-159" value="" style="verticalLabelPosition=bottom;outlineConnect=0;align=center;dashed=0;html=1;verticalAlign=top;shape=mxgraph.pid2misc.fan;fanType=common;fontSize=16;fillColor=#dae8fc;strokeColor=#6c8ebf;" vertex="1" parent="1">
          <mxGeometry x="470" y="620" width="105" height="100" as="geometry" />
        </mxCell>
        <mxCell id="9HBcgen3dVJOL9bGBd_y-194" style="edgeStyle=orthogonalEdgeStyle;shape=connector;rounded=0;orthogonalLoop=1;jettySize=auto;html=1;exitX=0.25;exitY=0;exitDx=0;exitDy=0;entryX=1;entryY=0;entryDx=0;entryDy=0;strokeColor=default;align=center;verticalAlign=middle;fontFamily=Helvetica;fontSize=11;fontColor=default;labelBackgroundColor=default;endArrow=none;endFill=0;" edge="1" parent="1" source="9HBcgen3dVJOL9bGBd_y-160" target="9HBcgen3dVJOL9bGBd_y-156">
          <mxGeometry relative="1" as="geometry" />
        </mxCell>
        <mxCell id="9HBcgen3dVJOL9bGBd_y-195" value="thermocouple" style="edgeLabel;html=1;align=center;verticalAlign=middle;resizable=0;points=[];fontFamily=Helvetica;fontSize=11;fontColor=default;labelBackgroundColor=default;" vertex="1" connectable="0" parent="9HBcgen3dVJOL9bGBd_y-194">
          <mxGeometry x="-0.1079" y="-1" relative="1" as="geometry">
            <mxPoint x="-34" y="-1" as="offset" />
          </mxGeometry>
        </mxCell>
        <mxCell id="9HBcgen3dVJOL9bGBd_y-160" value="" style="rounded=0;whiteSpace=wrap;html=1;fontSize=16;fillColor=#f8cecc;strokeColor=#b85450;" vertex="1" parent="1">
          <mxGeometry x="467.5" y="560" width="110" height="15" as="geometry" />
        </mxCell>
        <mxCell id="9HBcgen3dVJOL9bGBd_y-161" value="" style="rounded=0;whiteSpace=wrap;html=1;fontSize=16;fillColor=#dae8fc;strokeColor=#6c8ebf;" vertex="1" parent="1">
          <mxGeometry x="467.5" y="582.5" width="110" height="15" as="geometry" />
        </mxCell>
        <mxCell id="9HBcgen3dVJOL9bGBd_y-162" style="edgeStyle=orthogonalEdgeStyle;shape=connector;rounded=0;orthogonalLoop=1;jettySize=auto;html=1;entryX=0.5;entryY=0;entryDx=0;entryDy=0;strokeColor=default;align=center;verticalAlign=middle;fontFamily=Helvetica;fontSize=16;fontColor=default;labelBackgroundColor=default;endArrow=none;endFill=0;" edge="1" parent="1" source="9HBcgen3dVJOL9bGBd_y-164" target="9HBcgen3dVJOL9bGBd_y-156">
          <mxGeometry relative="1" as="geometry" />
        </mxCell>
        <mxCell id="9HBcgen3dVJOL9bGBd_y-163" value="&lt;font style=&quot;font-size: 14px;&quot;&gt;PWM&lt;/font&gt;" style="edgeLabel;html=1;align=center;verticalAlign=middle;resizable=0;points=[];fontFamily=Helvetica;fontSize=16;fontColor=default;labelBackgroundColor=default;" vertex="1" connectable="0" parent="9HBcgen3dVJOL9bGBd_y-162">
          <mxGeometry x="-0.0106" y="-1" relative="1" as="geometry">
            <mxPoint x="12" y="11" as="offset" />
          </mxGeometry>
        </mxCell>
        <mxCell id="9HBcgen3dVJOL9bGBd_y-164" value="" style="shape=mxgraph.pid.heat_exchangers.heat_exchanger_(straight_tubes);html=1;pointerEvents=1;align=center;verticalLabelPosition=bottom;verticalAlign=top;dashed=0;fontFamily=Helvetica;fontSize=16;labelBackgroundColor=default;fillColor=#f8cecc;strokeColor=#b85450;" vertex="1" parent="1">
          <mxGeometry x="440" y="460" width="165" height="60" as="geometry" />
        </mxCell>
        <mxCell id="9HBcgen3dVJOL9bGBd_y-165" value="heater" style="text;html=1;align=center;verticalAlign=middle;whiteSpace=wrap;rounded=0;fontFamily=Helvetica;fontSize=16;labelBackgroundColor=#FFCCCC;fillColor=#f8cecc;strokeColor=#b85450;" vertex="1" parent="1">
          <mxGeometry x="492.5" y="475" width="60" height="30" as="geometry" />
        </mxCell>
        <mxCell id="9HBcgen3dVJOL9bGBd_y-166" value="cooler" style="text;html=1;align=center;verticalAlign=middle;whiteSpace=wrap;rounded=0;fontFamily=Helvetica;fontSize=16;fontColor=default;labelBackgroundColor=default;" vertex="1" parent="1">
          <mxGeometry x="492.5" y="720" width="60" height="30" as="geometry" />
        </mxCell>
        <mxCell id="9HBcgen3dVJOL9bGBd_y-167" value="&lt;b&gt;TEG&lt;/b&gt;" style="text;html=1;align=center;verticalAlign=middle;whiteSpace=wrap;rounded=0;fontFamily=Helvetica;fontSize=16;fontColor=default;labelBackgroundColor=default;" vertex="1" parent="1">
          <mxGeometry x="575" y="563.75" width="60" height="30" as="geometry" />
        </mxCell>
        <mxCell id="9HBcgen3dVJOL9bGBd_y-182" style="edgeStyle=orthogonalEdgeStyle;shape=connector;rounded=0;orthogonalLoop=1;jettySize=auto;html=1;entryX=0;entryY=0.5;entryDx=0;entryDy=0;strokeColor=default;align=center;verticalAlign=middle;fontFamily=Helvetica;fontSize=11;fontColor=default;labelBackgroundColor=default;endArrow=none;endFill=0;" edge="1" parent="1" source="9HBcgen3dVJOL9bGBd_y-181" target="9HBcgen3dVJOL9bGBd_y-156">
          <mxGeometry relative="1" as="geometry" />
        </mxCell>
        <mxCell id="9HBcgen3dVJOL9bGBd_y-183" value="UART" style="edgeLabel;html=1;align=center;verticalAlign=middle;resizable=0;points=[];fontFamily=Helvetica;fontSize=11;fontColor=default;labelBackgroundColor=default;" vertex="1" connectable="0" parent="9HBcgen3dVJOL9bGBd_y-182">
          <mxGeometry x="-0.1841" y="-2" relative="1" as="geometry">
            <mxPoint x="3" y="-14" as="offset" />
          </mxGeometry>
        </mxCell>
        <mxCell id="9HBcgen3dVJOL9bGBd_y-181" value="GUI" style="shape=mxgraph.signs.tech.computer;html=1;pointerEvents=1;fillColor=#000000;strokeColor=none;verticalLabelPosition=bottom;verticalAlign=top;align=center;fontFamily=Helvetica;fontSize=11;fontColor=default;labelBackgroundColor=default;" vertex="1" parent="1">
          <mxGeometry x="120" y="537.5" width="80" height="84" as="geometry" />
        </mxCell>
        <mxCell id="9HBcgen3dVJOL9bGBd_y-193" style="edgeStyle=orthogonalEdgeStyle;shape=connector;rounded=0;orthogonalLoop=1;jettySize=auto;html=1;exitX=0.25;exitY=1;exitDx=0;exitDy=0;entryX=1;entryY=1;entryDx=0;entryDy=0;strokeColor=default;align=center;verticalAlign=middle;fontFamily=Helvetica;fontSize=11;fontColor=default;labelBackgroundColor=default;endArrow=none;endFill=0;" edge="1" parent="1" source="9HBcgen3dVJOL9bGBd_y-161" target="9HBcgen3dVJOL9bGBd_y-156">
          <mxGeometry relative="1" as="geometry" />
        </mxCell>
        <mxCell id="9HBcgen3dVJOL9bGBd_y-197" value="thermocouple" style="edgeLabel;html=1;align=center;verticalAlign=middle;resizable=0;points=[];fontFamily=Helvetica;fontSize=11;fontColor=default;labelBackgroundColor=default;" vertex="1" connectable="0" parent="9HBcgen3dVJOL9bGBd_y-193">
          <mxGeometry x="0.217" relative="1" as="geometry">
            <mxPoint x="-11" as="offset" />
          </mxGeometry>
        </mxCell>
      </root>
    </mxGraphModel>
  </diagram>
</mxfile>
